<svg width="331" height="311" viewBox="0 0 331 311" fill="none" xmlns="http://www.w3.org/2000/svg">
<path d="M109.5 9C109.5 9 115.389 75.0135 139.697 102.788C163.088 129.514 219 138.5 219 138.5C219 138.5 163.088 147.486 139.697 174.212C115.389 201.987 109.5 268 109.5 268C109.5 268 103.611 201.987 79.303 174.212C55.9116 147.486 0 138.5 0 138.5C0 138.5 55.9116 129.514 79.303 102.788C103.611 75.0135 109.5 9 109.5 9Z" fill="#C8ACD6"/>
<path d="M286.5 0C286.5 0 288.893 35.1732 298.772 49.9718C308.278 64.2121 331 69 331 69C331 69 308.278 73.7879 298.772 88.0282C288.893 102.827 286.5 138 286.5 138C286.5 138 284.107 102.827 274.228 88.0282C264.722 73.7879 242 69 242 69C242 69 264.722 64.2121 274.228 49.9718C284.107 35.1732 286.5 0 286.5 0Z" fill="#C8ACD6"/>
<path d="M261.5 178C261.5 178 263.786 211.899 273.22 226.161C282.299 239.886 304 244.5 304 244.5C304 244.5 282.299 249.114 273.22 262.839C263.786 277.101 261.5 311 261.5 311C261.5 311 259.214 277.101 249.78 262.839C240.701 249.114 219 244.5 219 244.5C219 244.5 240.701 239.886 249.78 226.161C259.214 211.899 261.5 178 261.5 178Z" fill="#C8ACD6"/>
</svg>
