<svg xmlns="http://www.w3.org/2000/svg" version="1.1" xmlns:xlink="http://www.w3.org/1999/xlink" xmlns:svgjs="http://svgjs.dev/svgjs" width="2000" height="2000" viewBox="0 0 2000 2000"><g transform="matrix(1,0,0,1,0,0)"><svg viewBox="0 0 280 280" data-background-color="#7469b6" preserveAspectRatio="xMidYMid meet" height="2000" width="2000" xmlns="http://www.w3.org/2000/svg" xmlns:xlink="http://www.w3.org/1999/xlink"><g id="tight-bounds" transform="matrix(1,0,0,1,0,0)"><svg viewBox="0 0 280 280" height="280" width="280"><g><svg viewBox="0 0 280 280" height="280" width="280"><g><svg viewBox="0 0 280 280" height="280" width="280"><g id="textblocktransform"><svg viewBox="0 0 280 280" height="280" width="280" id="textblock"><g><svg viewBox="0 0 280 280" height="280" width="280"><g transform="matrix(1,0,0,1,74.00336708925556,78.05138144724552)"><svg viewBox="0 0 131.99326582148888 123.89723710550896" height="123.89723710550896" width="131.99326582148888"><g id="icon-0"><svg xmlns="http://www.w3.org/2000/svg" xmlns:xlink="http://www.w3.org/1999/xlink" version="1.1" x="0" y="0" viewBox="6.999030915390656 8.999878333379925 87.23551565344536 81.88477873980027" enable-background="new 0 0 100 100" xml:space="preserve" height="123.89723710550896" width="131.99326582148888" class="icon-jxe-0" data-fill-palette-color="accent" id="jxe-0"><g fill="#ad88c6" data-fill-palette-color="accent"><g fill="#ad88c6" data-fill-palette-color="accent"><g fill="#ad88c6" data-fill-palette-color="accent"><path d="M94.154 14.782C93.554 12.906 86.357 13.25 80.328 15.118 79.514 11.519 77.728 9.017 75.631 9 73.647 8.981 71.901 11.189 70.979 14.46 66.93 12.452 63.071 12.28 61.713 14.275 60.215 16.475 62.287 20.541 66.379 23.748A41.7 41.7 0 0 0 59.66 32.45C53.348 43.387 45.569 49.698 42.831 56.006 41.101 60.001 39.037 67.704 41.489 73.352 39.215 73.167 36.544 73.065 33.482 73.046 25.646 72.995 23.007 70.919 23.007 69.979 23.007 69.223 24.993 67.725 29.593 67.683 35.948 67.625 38.204 65.374 38.195 63.29 38.181 60.136 33.072 56.955 21.694 56.955 14.586 56.955 9.141 58.738 7.482 61.606 6.856 62.695 6.837 63.863 7.434 64.895 8.667 67.033 12.35 68.208 17.803 68.208A1.263 1.263 0 0 0 17.803 65.681C12.279 65.681 10.06 64.392 9.618 63.631 9.518 63.454 9.452 63.24 9.669 62.867 10.456 61.505 14.308 59.475 21.693 59.475 32.215 59.475 35.666 62.318 35.669 63.297 35.674 63.926 33.886 65.114 29.568 65.154 23.287 65.213 20.478 67.619 20.481 69.978 20.486 72.64 23.899 75.506 33.464 75.565 37.408 75.591 40.352 75.758 42.549 75.982 43.679 78.315 47.379 79.281 50 82 55.207 87.392 59.154 92.229 60.9 90.544 61.994 89.487 61.949 85.154 60 82 61.031 82.183 62.885 82.179 64 82.313 71.441 83.224 76.207 84.492 76.41 82.856 76.572 81.548 72.84 79.966 67.529 78.92 76.449 74.983 76.89 64.327 78.17 51.8 79.299 40.737 81.914 33.788 86.164 27.402 89.83 21.889 94.938 17.218 94.154 14.782M76.258 24.355A3.064 3.064 0 1 1 76.258 18.226 3.064 3.064 0 0 1 76.259 24.355" fill="#ad88c6" data-fill-palette-color="accent"></path></g><path d="M83.681 54.506C82.228 55.77 78.603 53.985 75.588 50.518S71.309 43.213 72.766 41.948C74.221 40.682 74.985 44.533 78 48 81.015 51.468 85.138 53.238 83.681 54.506" fill="#ad88c6" data-fill-palette-color="accent"></path></g></g></svg></g></svg></g><g id="text-0"><path d="M34.281 92.386l-4.429 13.674-22.797-7.385 4.43-13.674 4.561 1.478-2.952 9.113 4.561 1.477 2.952-9.113 4.552 1.475-2.952 9.113 4.561 1.477 2.952-9.113z" fill="#e1afd1" data-fill-palette-color="primary"></path><path d="M46.886 70.665l-7.276 12.396-20.666-12.129 2.427-4.135 16.531 9.702 4.849-8.261z" fill="#e1afd1" data-fill-palette-color="primary"></path><path d="M63.88 52.176l-9.78 10.534-17.561-16.304 3.262-3.513 14.048 13.041 6.517-7.02z" fill="#e1afd1" data-fill-palette-color="primary"></path><path d="M76.5 43.523l-3.995 2.65-10.598-15.972 3.996-2.651-2.651-3.995 7.982-5.296 2.651 3.996 3.995-2.651 10.597 15.972-3.995 2.651-5.302-7.991-7.982 5.296zM66.009 27.71l2.544 3.836 7.982-5.296-2.544-3.836z" fill="#e1afd1" data-fill-palette-color="primary"></path><path d="M132.235 24.234l-14.211 2.157-3.595-23.692 14.211-2.156 0.719 4.74 4.74-0.719 2.157 14.211-4.74 0.719zM119.888 6.72l0.72 4.741 9.281-1.409-0.72-4.74zM121.326 16.191l0.719 4.74 9.281-1.408-0.719-4.741z" fill="#e1afd1" data-fill-palette-color="primary"></path><path d="M161.526 25.999l-9.527-0.999 0.5-4.768-4.769-0.5 1.999-19.064 4.768 0.5-1.998 19.064 9.527 0.999zM166.794 21.73l-4.768-0.499 1.998-19.064 4.769 0.5z" fill="#e1afd1" data-fill-palette-color="primary"></path><path d="M180.45 31.731l-4.487-1.689 8.44-22.427 13.453 5.063-1.689 4.487 4.487 1.689-1.689 4.487-4.487-1.689-3.374 8.965 4.488 1.689-1.689 4.487-4.488-1.688 1.689-4.488-4.487-1.688 1.689-4.488-4.478-1.685zM187.202 13.791l-1.689 4.487 8.786 3.307 1.688-4.488z" fill="#e1afd1" data-fill-palette-color="primary"></path><path d="M205.995 45.447l-3.863-2.84 14.192-19.308 3.863 2.839-2.84 3.864 3.856 2.833-2.84 3.863 3.863 2.84-2.833 3.855 3.863 2.84 8.513-11.582 3.863 2.839-14.192 19.309-3.863-2.84 2.84-3.863-3.864-2.84 2.84-3.863-3.863-2.839 2.833-3.856-3.855-2.833z" fill="#e1afd1" data-fill-palette-color="primary"></path><path d="M262.056 62.212l-2.949-3.78 3.78-2.95 2.949 3.781zM253.215 50.879l-2.95-3.78 3.78-2.949 2.95 3.78zM230.542 68.569l-2.95-3.78 15.113-11.791 2.949 3.78 3.78-2.949 5.893 7.552-3.78 2.949 2.949 3.781-15.113 11.791-2.949-3.781 7.56-5.898-5.892-7.553zM245.503 56.896l-3.629 2.831 5.893 7.553 3.628-2.832z" fill="#e1afd1" data-fill-palette-color="primary"></path><path d="M268.743 99.327l-5.696-13.197 4.402-1.9 5.696 13.196zM255.547 105.023l-1.9-4.402 4.402-1.9-3.797-8.795 4.393-1.896-1.9-4.402 4.402-1.9 1.9 4.402-4.402 1.9 3.796 8.795-4.392 1.896 1.9 4.402zM249.245 102.521l-5.697-13.196 4.402-1.9 5.697 13.196z" fill="#e1afd1" data-fill-palette-color="primary"></path><path d="M0 140c0-7.078 5.738-12.815 12.815-12.815 7.078 0 12.815 5.738 12.816 12.815 0 7.078-5.738 12.815-12.816 12.815-7.078 0-12.815-5.738-12.815-12.815z" fill="#e1afd1" data-fill-palette-color="primary"></path><path d="M254.369 140c0-7.078 5.738-12.815 12.816-12.815 7.078 0 12.815 5.738 12.815 12.815 0 7.078-5.738 12.815-12.815 12.815-7.078 0-12.815-5.738-12.816-12.815z" fill="#e1afd1" data-fill-palette-color="primary"></path></g><g id="text-1"><path d="M11.485 194.999l-4.43-13.674 22.797-7.385 4.429 13.674-4.561 1.478-2.952-9.113-4.561 1.477 2.952 9.113-4.552 1.475-2.952-9.113-4.561 1.477 2.952 9.113z" fill="#58454b" data-fill-palette-color="secondary"></path><path d="M26.22 221.464l-7.276-12.396 20.666-12.129 2.427 4.135-16.531 9.702 4.849 8.261z" fill="#58454b" data-fill-palette-color="secondary"></path><path d="M46.319 244.127l-9.78-10.533 17.561-16.304 3.263 3.513-14.048 13.042 6.517 7.02z" fill="#58454b" data-fill-palette-color="secondary"></path><path d="M63.252 256.445l-3.995-2.651 10.597-15.972 3.995 2.65 2.651-3.995 7.982 5.296-2.651 3.995 3.995 2.651-10.597 15.972-3.995-2.65 5.301-7.991-7.982-5.296zM73.743 240.632l-2.545 3.836 7.982 5.296 2.545-3.836z" fill="#58454b" data-fill-palette-color="secondary"></path><path d="M128.64 279.457l-14.211-2.156 3.595-23.692 14.211 2.157-0.719 4.74 4.74 0.719-2.157 14.211-4.74-0.719zM122.045 259.069l-0.719 4.74 9.281 1.409 0.719-4.741zM120.608 268.539l-0.72 4.741 9.281 1.408 0.72-4.74z" fill="#58454b" data-fill-palette-color="secondary"></path><path d="M164.024 277.833l-9.527 0.999-0.5-4.769-4.768 0.5-1.998-19.063 4.768-0.5 1.998 19.063 9.527-0.998zM168.293 272.565l-4.769 0.5-1.998-19.064 4.768-0.5z" fill="#58454b" data-fill-palette-color="secondary"></path><path d="M188.891 270.696l-4.488 1.689-8.44-22.427 13.452-5.063 1.689 4.488 4.488-1.689 1.688 4.487-4.487 1.689 3.374 8.965 4.487-1.689 1.689 4.488-4.487 1.688-1.689-4.487-4.487 1.689-1.689-4.487-4.478 1.685zM182.139 252.757l1.689 4.487 8.785-3.307-1.688-4.487z" fill="#58454b" data-fill-palette-color="secondary"></path><path d="M220.187 253.862l-3.863 2.839-14.192-19.308 3.863-2.84 2.84 3.864 3.855-2.834 2.84 3.863 3.863-2.839 2.833 3.855 3.864-2.84-8.513-11.581 3.864-2.84 14.191 19.309-3.863 2.839-2.84-3.863-3.863 2.839-2.84-3.863-3.863 2.839-2.833-3.855-3.856 2.834z" fill="#58454b" data-fill-palette-color="secondary"></path><path d="M235.603 197.149l-2.949 3.78-3.78-2.949 2.949-3.78zM226.762 208.482l-2.95 3.78-3.78-2.95 2.949-3.78zM249.434 226.171l-2.949 3.78-15.112-11.791 2.949-3.78-3.78-2.949 5.892-7.552 3.78 2.949 2.95-3.78 15.112 11.791-2.949 3.78-7.56-5.899-5.893 7.553zM234.473 214.498l3.629 2.831 5.892-7.552-3.629-2.831z" fill="#58454b" data-fill-palette-color="secondary"></path><path d="M255.547 174.977l-5.697 13.196-4.402-1.9 5.697-13.196zM268.743 180.673l-1.9 4.402-4.402-1.9-3.796 8.795-4.393-1.896-1.9 4.402-4.402-1.901 1.9-4.402 4.402 1.901 3.797-8.795 4.392 1.896 1.9-4.402zM271.245 186.975l-5.696 13.197-4.402-1.9 5.696-13.197z" fill="#58454b" data-fill-palette-color="secondary"></path></g></svg></g></svg></g></svg></g></svg></g><defs></defs></svg><rect width="280" height="280" fill="none" stroke="none" visibility="hidden"></rect></g></svg></g></svg>