<svg xmlns="http://www.w3.org/2000/svg" version="1.1" xmlns:xlink="http://www.w3.org/1999/xlink" xmlns:svgjs="http://svgjs.dev/svgjs" width="128" height="128" viewBox="0 0 128 128"><g transform="matrix(0.8046875,0,0,0.8046875,12.221578124999994,15.517316575296036)"><svg viewBox="0 0 96 90" data-background-color="#7469b6" preserveAspectRatio="xMidYMid meet" height="120" width="128" xmlns="http://www.w3.org/2000/svg" xmlns:xlink="http://www.w3.org/1999/xlink"><g id="tight-bounds" transform="matrix(1,0,0,1,0.25950000000000273,0.18774377448136192)"><svg viewBox="0 0 95.48100000000001 89.62451245103726" height="89.62451245103726" width="95.48100000000001"><g><svg viewBox="0 0 95.48100000000001 89.62451245103726" height="89.62451245103726" width="95.48100000000001"><g><svg viewBox="0 0 95.48100000000001 89.62451245103726" height="89.62451245103726" width="95.48100000000001"><g id="textblocktransform"><svg viewBox="0 0 95.48100000000001 89.62451245103726" height="89.62451245103726" width="95.48100000000001" id="textblock"><g><svg viewBox="0 0 95.48100000000001 89.62451245103726" height="89.62451245103726" width="95.48100000000001"><g><svg viewBox="0 0 95.48100000000001 89.62451245103726" height="89.62451245103726" width="95.48100000000001"><g><svg xmlns="http://www.w3.org/2000/svg" xmlns:xlink="http://www.w3.org/1999/xlink" version="1.1" x="0" y="0" viewBox="6.999030915390656 8.999878333379925 87.23551565344536 81.88477873980027" enable-background="new 0 0 100 100" xml:space="preserve" height="89.62451245103726" width="95.48100000000001" class="icon-icon-0" data-fill-palette-color="accent" id="icon-0"><g fill="#ad88c6" data-fill-palette-color="accent"><g fill="#ad88c6" data-fill-palette-color="accent"><g fill="#ad88c6" data-fill-palette-color="accent"><path d="M94.154 14.782C93.554 12.906 86.357 13.25 80.328 15.118 79.514 11.519 77.728 9.017 75.631 9 73.647 8.981 71.901 11.189 70.979 14.46 66.93 12.452 63.071 12.28 61.713 14.275 60.215 16.475 62.287 20.541 66.379 23.748A41.7 41.7 0 0 0 59.66 32.45C53.348 43.387 45.569 49.698 42.831 56.006 41.101 60.001 39.037 67.704 41.489 73.352 39.215 73.167 36.544 73.065 33.482 73.046 25.646 72.995 23.007 70.919 23.007 69.979 23.007 69.223 24.993 67.725 29.593 67.683 35.948 67.625 38.204 65.374 38.195 63.29 38.181 60.136 33.072 56.955 21.694 56.955 14.586 56.955 9.141 58.738 7.482 61.606 6.856 62.695 6.837 63.863 7.434 64.895 8.667 67.033 12.35 68.208 17.803 68.208A1.263 1.263 0 0 0 17.803 65.681C12.279 65.681 10.06 64.392 9.618 63.631 9.518 63.454 9.452 63.24 9.669 62.867 10.456 61.505 14.308 59.475 21.693 59.475 32.215 59.475 35.666 62.318 35.669 63.297 35.674 63.926 33.886 65.114 29.568 65.154 23.287 65.213 20.478 67.619 20.481 69.978 20.486 72.64 23.899 75.506 33.464 75.565 37.408 75.591 40.352 75.758 42.549 75.982 43.679 78.315 47.379 79.281 50 82 55.207 87.392 59.154 92.229 60.9 90.544 61.994 89.487 61.949 85.154 60 82 61.031 82.183 62.885 82.179 64 82.313 71.441 83.224 76.207 84.492 76.41 82.856 76.572 81.548 72.84 79.966 67.529 78.92 76.449 74.983 76.89 64.327 78.17 51.8 79.299 40.737 81.914 33.788 86.164 27.402 89.83 21.889 94.938 17.218 94.154 14.782M76.258 24.355A3.064 3.064 0 1 1 76.258 18.226 3.064 3.064 0 0 1 76.259 24.355" fill="#ad88c6" data-fill-palette-color="accent"></path></g><path d="M83.681 54.506C82.228 55.77 78.603 53.985 75.588 50.518S71.309 43.213 72.766 41.948C74.221 40.682 74.985 44.533 78 48 81.015 51.468 85.138 53.238 83.681 54.506" fill="#ad88c6" data-fill-palette-color="accent"></path></g></g></svg></g></svg></g></svg></g></svg></g></svg></g></svg></g><defs></defs></svg><rect width="95.48100000000001" height="89.62451245103726" fill="none" stroke="none" visibility="hidden"></rect></g></svg></g></svg>